#!OML:ASF H:\BabyWalks\Project 1\Capture day 1\Session 1\baby.ASF
:FULLY-SPECIFIED
:DEGREES
319
root -15.6724 18.0038 -2.03554 -54.6769 86.8224 -66.1794
lowerback 21.6351 -0.31238 -2.90689
upperback 5.37742 -0.769021 -1.23703
thorax -6.18248 -0.192499 0.509864
lowerneck -3.19044 1.26488 6.49826
upperneck 1.71596 1.45588 -1.24798
head 1.13972 0.761094 -1.46743
rclavicle 3.18055e-015 1.43125e-014
rhumerus -45.2465 9.44139 -84.8145
rradius 54.5731
rwrist -3.46478
rhand -13.3376 -16.6284
rfingers 7.12502
rthumb 12.7678 -46.218
lclavicle 3.18055e-015 1.43125e-014
lhumerus -35.7425 -4.83164 75.4342
lradius 55.8516
lwrist -2.8378
lhand -14.8729 8.7734
lfingers 7.12502
lthumb 11.2873 38.4497
rfemur -32.7791 -4.32706 23.5457
rtibia 50.5814
rfoot -16.2484 -5.85297
rtoes -11.5322
lfemur -14.1679 -1.14951 -15.5518
ltibia 26.7131
lfoot -21.8397 0.955449
ltoes -6.78587
320
root -15.4711 18.0398 -2.00611 -58.6911 86.887 -70.3152
lowerback 21.5626 -0.38687 -2.76407
upperback 5.31411 -0.824446 -1.01205
thorax -6.21127 -0.2228 0.685735
lowerneck -3.06619 1.18408 6.52874
upperneck 1.51322 1.36274 -1.58925
head 1.05492 0.705428 -1.5848
rclavicle -7.55382e-015 -3.97569e-015
rhumerus -45.7493 9.66456 -84.5874
rradius 54.3589
rwrist -3.81336
rhand -12.4629 -16.7865
rfingers 7.12502
rthumb 13.6109 -46.3216
lclavicle -7.55382e-015 -3.97569e-015
lhumerus -35.6195 -5.56812 75.7976
lradius 57.7001
lwrist -2.3795
lhand -15.6509 8.59794
lfingers 7.12502
lthumb 10.5369 38.3138
rfemur -32.9572 -3.94064 23.5689
rtibia 47.6726
rfoot -16.614 -6.03776
rtoes -11.4074
lfemur -13.2678 -1.11055 -15.4457
ltibia 26.0056
lfoot -21.4922 0.760414
ltoes -7.0578
321
root -15.2687 18.0642 -1.97547 -62.9921 86.9866 -74.7285
lowerback 21.4698 -0.452493 -2.63283
upperback 5.25189 -0.870651 -0.799626
thorax -6.2283 -0.248466 0.851894
lowerneck -2.92368 1.09053 6.58268
upperneck 1.31507 1.25243 -1.95567
head 0.967923 0.641891 -1.71518
rclavicle -1.59028e-014 -8.74653e-015
rhumerus -46.2306 9.8423 -84.3598
rradius 54.0966
rwrist -4.07202
rhand -11.6766 -16.9192
rfingers 7.12502
rthumb 14.3686 -46.4019
lclavicle -1.59028e-014 -8.74653e-015
lhumerus -35.5164 -6.31548 76.1168
lradius 59.4795
lwrist -1.95361
lhand -16.1325 8.38835
lfingers 7.12502
lthumb 10.0723 38.1273
rfemur -33.0323 -3.50948 23.4841
rtibia 44.7488
rfoot -16.907 -6.21761
rtoes -11.3728
lfemur -12.4488 -0.934954 -15.3709
ltibia 25.442
lfoot -21.1067 0.375809
ltoes -7.44655
322
root -15.0636 18.0952 -1.94321 -67.9146 87.1267 -79.7546
lowerback 21.3587 -0.510571 -2.51651
upperback 5.18842 -0.910645 -0.601907
thorax -6.23705 -0.270914 1.0087
lowerneck -2.76749 0.980304 6.64861
upperneck 1.13661 1.11965 -2.33776
head 0.883523 0.568154 -1.8537
rclavicle -1.98785e-015 -1.74931e-014
rhumerus -46.6965 9.96848 -84.1328
rradius 53.7928
rwrist -4.23766
rhand -11.0058 -17.0176
rfingers 7.12502
rthumb 15.0149 -46.4532
lclavicle -1.98785e-015 -1.74931e-014
lhumerus -35.4404 -7.05745 76.3967
lradius 61.1845
lwrist -1.50856
lhand -16.3491 8.16363
lfingers 7.12502
lthumb 9.86337 37.9126
rfemur -32.9669 -3.02175 23.2784
rtibia 41.8372
rfoot -17.1192 -6.43814
rtoes -11.4039
lfemur -11.7065 -0.641514 -15.325
ltibia 25.0202
lfoot -20.6795 -0.210631
ltoes -7.95681
323
root -14.8573 18.1225 -1.90916 -74.2254 87.3086 -86.1581
lowerback 21.2376 -0.566436 -2.41316
upperback 5.12334 -0.951343 -0.421534
thorax -6.24205 -0.293396 1.15404
lowerneck -2.61191 0.850937 6.73111
upperneck 0.994327 0.960166 -2.73733
head 0.808926 0.482268 -2.00198
rclavicle -3.97569e-015 1.59028e-015
rhumerus -47.1497 10.0331 -83.9088
rradius 53.4506
rwrist -4.32236
rhand -10.4555 -17.0849
rfingers 7.12502
rthumb 15.5449 -46.4801
lclavicle -3.97569e-015 1.59028e-015
lhumerus -35.3869 -7.76934 76.6394
lradius 62.7936
lwrist -1.01306
lhand -16.3426 7.93021
lfingers 7.12502
lthumb 9.86959 37.6789
rfemur -32.8112 -2.47214 22.94
rtibia 39.0498
rfoot -17.2444 -6.74557
rtoes -11.4304
lfemur -11.07 -0.268309 -15.3021
ltibia 24.7815
lfoot -20.2122 -1.00074
ltoes -8.58798
324
root -14.6501 18.1465 -1.8732 -82.7466 87.5079 -94.758
lowerback 21.1112 -0.626124 -2.32815
upperback 5.05836 -1.00112 -0.250182
thorax -6.24333 -0.319856 1.30214
lowerneck -2.47335 0.707407 6.80416
upperneck 0.903719 0.78058 -3.14375
head 0.75152 0.387544 -2.15183
rclavicle -2.54444e-014 -1.90833e-014
rhumerus -47.5874 10.0589 -83.6854
rradius 53.0762
rwrist -4.33673
rhand -10.0389 -17.1106
rfingers 7.12502
rthumb 15.9462 -46.4742
lclavicle -2.54444e-014 -1.90833e-014
lhumerus -35.3569 -8.40217 76.8526
lradius 64.2764
lwrist -0.464005
lhand -16.1747 7.67069
lfingers 7.12502
lthumb 10.0316 37.4116
rfemur -32.5643 -1.85147 22.4704
rtibia 36.4252
rfoot -17.2482 -7.18059
rtoes -11.3256
lfemur -10.519 0.152668 -15.2923
ltibia 24.6817
lfoot -19.6714 -1.98519
ltoes -9.34393
